#!OML:ASF F:\VICON\USERDATA\INSTALL\rory3\rory3.ASF
:FULLY-SPECIFIED
:DEGREES
127
root 0.6803424374715356 17.787373709887017 25.62859767292661 2.9189874264153852 -5.060531230694064 -2.570605837992842
lfemur -8.3949361948581 0.36605562409539605 -18.879367668330968
ltibia 69.3063801769538
lfoot 4.430336981400366 -8.54560838103101
ltoes -26.613578179257317
rfemur -22.355375329598523 3.444911091309328 29.401216005344867
rtibia 72.39110597118082
rfoot 2.4639899868968986 -6.865010340931094
rtoes -7.561658358852048
lowerback 14.082948025050692 1.6183033064090444 1.738356092501849
upperback -0.9105688545037185 2.4757979997787443 0.6497319044036314
thorax -8.407930694258841 1.227742090243967 -0.7337494602397303
lowerneck -18.21110026930633 -5.026870116068124 -2.335930356526885
upperneck 6.988053577685858 -7.099780848148855 6.077548914876917
head 5.270620538935594 -3.014688010734888 1.677252666733659
lclavicle -1.3367475555389816e-15 -2.7589793148736594e-15
lhumerus -40.569499136870945 -10.476808956425929 91.08695286654483
lradius 109.76762587276379
lwrist 30.769857185193256
lhand -22.89586638443469 3.63785660586065
lfingers 7.12502
lthumb 3.2962127578806655 32.733824226715136
rclavicle -1.3367475554451583e-15 -2.7589793148041166e-15
rhumerus -50.05828752392393 11.326873960930582 -96.35578260973716
rradius 112.4809717890239
rwrist -21.90036640763259
rhand -19.11527701653408 40.41694944469871
rfingers 7.12502
rthumb 6.226455708488216 10.166102543358686
128
root 0.6671695074022169 17.73893840432973 25.838589247254493 2.773114788117681 -4.962335001713632 -2.4902764998196636
lfemur -9.215226127086849 0.6794615977723053 -18.738518182162863
ltibia 71.85436447653967
lfoot 4.4734895656172675 -8.351502815337987
ltoes -24.64250362574938
rfemur -21.801416740754437 3.516669021212735 29.345743671344945
rtibia 72.03192737686707
rfoot 2.179771149156592 -6.991972294331221
rtoes -6.975538030549954
lowerback 14.25307024085552 1.64719056905187 1.6190821680741876
upperback -0.8573388296277265 2.490826376715689 0.588230563737714
thorax -8.591332203270126 1.2256253561030628 -0.7453737569344414
lowerneck -18.225842914681195 -5.016078789850832 -2.329712602096704
upperneck 6.815355996551461 -7.082394257088556 6.110885811232583
head 5.134500436430352 -3.012624591505753 1.6938839007513562
lclavicle -1.3367475555433253e-15 -2.7589793148769845e-15
lhumerus -40.3483894429459 -10.40232219525545 91.06513286974734
lradius 110.35081987232329
lwrist 30.852932568945185
lhand -22.814613354147134 3.9604456935214447
lfingers 7.12502
lthumb 3.093711173808163 32.78443759210789
rclavicle -1.3367475554470145e-15 -2.7589793148054963e-15
rhumerus -50.11673050327217 11.240535357953663 -96.54158878122114
rradius 112.52108606071499
rwrist -21.8731482447599
rhand -19.06373360670416 39.95602644717526
rfingers 7.12502
rthumb 6.2932980998549075 9.640459448694855
129
root 0.6544022994784389 17.702748314332347 26.026096174554908 2.658794493742522 -4.854413377048293 -2.4158984815384352
lfemur -10.048016988975185 0.9850158498038406 -18.603728242331314
ltibia 74.39177190091101
lfoot 4.837040937665654 -8.065421147974906
ltoes -22.470862299080284
rfemur -21.16088647043609 3.542260465630535 29.324880370452803
rtibia 71.76633863216979
rfoot 2.064487986667244 -7.326999339908184
rtoes -5.444922305936569
lowerback 14.403150653418995 1.6709512437776384 1.5133760071039508
upperback -0.7752238668642791 2.482269984349359 0.5111228217449149
thorax -8.727661887811953 1.2131942645177607 -0.7378462076320984
lowerneck -18.303157871737273 -4.988308259273125 -2.3201472779766954
upperneck 6.710992220894433 -7.041805214285573 6.132868543344351
head 5.061118762291122 -2.9933531318098323 1.7036971183543517
lclavicle -1.3367475555398092e-15 -2.758979314874114e-15
lhumerus -40.04912027895696 -10.34630162333251 90.99233158679536
lradius 110.94040950354928
lwrist 30.855438515406952
lhand -23.127994229314535 3.919769128088491
lfingers 7.12502
lthumb 2.869319787121566 32.85809098480712
rclavicle -1.336747555447881e-15 -2.758979314806071e-15
rhumerus -50.114039715788365 11.17331818871111 -96.71872009822191
rradius 112.54610062216582
rwrist -21.80848685231096
rhand -19.03134931702333 39.4458277627298
rfingers 7.12502
rthumb 6.390365064988176 9.100329116446359
130
root 0.6537644019101027 17.684389731935244 26.401959288778638 2.626900983518813 -4.771208984843882 -2.3660227773322644
lfemur -10.85870215612391 1.278289938037163 -18.468259009870106
ltibia 76.85148406881311
lfoot 5.475423432931382 -7.364061294545069
ltoes -21.351439914427107
rfemur -20.439920895500713 3.511340607850331 29.35929115591952
rtibia 71.4988764505493
rfoot 1.938482392947594 -7.623270570069858
rtoes -3.316809587273256
lowerback 14.439396307641003 1.6871529702261152 1.4652508979415415
upperback -0.697870848394522 2.4858050020944518 0.41617188967505336
thorax -8.825573519660846 1.2190790328358685 -0.7322176087359249
lowerneck -18.430396116604452 -4.945923200180338 -2.30332465346108
upperneck 6.640840935672798 -6.990226684837157 6.150492876181669
head 5.044194740741942 -2.965660014069454 1.7061515359446064
lclavicle -1.3367475555389148e-15 -2.7589793148734587e-15
lhumerus -39.77369837604202 -10.391414812840297 90.9373440563728
lradius 111.46732032028245
lwrist 30.81987904517529
lhand -23.394175762350603 3.825647594579489
lfingers 7.12502
lthumb 2.8033274344807406 33.07272760064236
rclavicle -1.3367475554503231e-15 -2.758979314808024e-15
rhumerus -50.05344693116088 11.13736889675399 -96.87184919219582
rradius 112.55956199226044
rwrist -21.72042599616584
rhand -18.980517705548046 38.877847806075955
rfingers 7.12502
rthumb 6.460078010023153 8.432637380176045
131
root 0.6469705369760422 17.667312934981208 26.545506206879033 2.6338691649387442 -4.745744480159068 -2.372227484786714
lfemur -11.74668054817658 1.5922451858399893 -18.24731439391434
ltibia 79.21603965588065
lfoot 5.913834488730459 -7.268910887696982
ltoes -21.197867436748048
rfemur -19.775878630794395 3.5937777049603388 29.442355761488265
rtibia 71.28422680736963
rfoot 2.086278924916587 -7.872417761502676
rtoes -1.1892864109622634
lowerback 14.477240030649966 1.7120397099231215 1.449002390246056
upperback -0.6543536163576107 2.4998810895680386 0.3440709801293127
thorax -9.010382459591499 1.2162748860007917 -0.728424070592266
lowerneck -18.533095915425278 -4.901352992030225 -2.2991207025192937
upperneck 6.57266899270433 -6.93646510058103 6.170737949450755
head 5.047665134765515 -2.937526186846097 1.7047125915851313
lclavicle -1.3367475555383792e-15 -2.758979314873186e-15
lhumerus -39.60666447057317 -10.33467236693023 90.85231645997058
lradius 112.02009314440525
lwrist 30.88909305048652
lhand -23.427516679968768 4.163525515829994
lfingers 7.12502
lthumb 2.539982881775875 33.1009923608562
rclavicle -1.3367475554512875e-15 -2.7589793148089314e-15
rhumerus -49.95873312445208 11.150082129880055 -97.02424619430637
rradius 112.55012308489648
rwrist -21.602567902819995
rhand -18.921293763784487 38.295110665165986
rfingers 7.12502
rthumb 6.526855002307082 7.812448463384385
132
root 0.646326057252142 17.637168403757613 26.91780022641892 2.6323499545145452 -4.774124777058855 -2.341549276869332
lfemur -12.584448403765206 1.9591861578780634 -18.09053980864087
ltibia 81.44084376523244
lfoot 5.22483769426885 -7.70613299981407
ltoes -22.334611009099593
rfemur -19.17822252482439 3.7056139923706635 29.47120987873889
rtibia 71.2482271613591
rfoot 2.053955793312733 -8.217191116164342
rtoes 0.7797761875603579
lowerback 14.50397110220957 1.7429772468471787 1.402284639321039
upperback -0.6232639266158523 2.51877142825262 0.2597320487159607
thorax -9.204407891274055 1.2235641025627855 -0.7260205489783873
lowerneck -18.653176178648874 -4.856594677731479 -2.313140734655961
upperneck 6.520452855253404 -6.868966588801207 6.193326066615477
head 5.052850457963461 -2.901485196102476 1.7088383202983577
lclavicle -1.3367475555365837e-15 -2.7589793148719823e-15
lhumerus -39.42064393816887 -10.243589240470326 90.71679022297229
lradius 112.5720585051599
lwrist 30.95141730343556
lhand -23.654447237919292 4.374317835858939
lfingers 7.12502
lthumb 2.3320554203786674 33.232360452285256
rclavicle -1.3367475554499185e-15 -2.7589793148080676e-15
rhumerus -49.90532771035525 11.133357411908117 -97.18664386631521
rradius 112.56078977424531
rwrist -21.46013285378347
rhand -18.886465741447665 37.825866412518195
rfingers 7.12502
rthumb 6.513441862318166 7.215100568531684
133
root 0.6632664188198298 17.605800187973877 27.49012780149126 2.6580423871678107 -4.752464204647832 -2.2502632926376847
lfemur -13.349544102941962 2.2938491040857723 -18.06465561164401
ltibia 83.48797138781177
lfoot 4.411483017230567 -7.91150361105494
ltoes -22.578069287661982
rfemur -18.51617842669926 3.701583294352713 29.429380711199414
rtibia 71.3758386237837
rfoot 1.9685616139765383 -8.525158602124975
rtoes 2.61612264749914
lowerback 14.433566684052607 1.7518437205599882 1.339037444703968
upperback -0.6000684149219905 2.504829545209093 0.12165807965715159
thorax -9.310877740630758 1.2280071420283338 -0.7338804823606808
lowerneck -18.77483825485911 -4.797907734352364 -2.326335915337121
upperneck 6.490265465679494 -6.784753759867376 6.217446225304107
head 5.069498638541317 -2.858277447821016 1.7157901897682246
lclavicle -1.3367475555324532e-15 -2.758979314869199e-15
lhumerus -39.303087742957075 -10.197786820258072 90.66458635801526
lradius 113.10806966621804
lwrist 30.996125164305507
lhand -23.900170973672306 4.255581876896439
lfingers 7.12502
lthumb 2.4342178807712163 33.62905260419816
rclavicle -1.3367475554497096e-15 -2.7589793148084053e-15
rhumerus -49.902412312761776 11.072141184427403 -97.34453274384909
rradius 112.59973809351395
rwrist -21.278206102633703
rhand -18.880692894189444 37.51693282036584
rfingers 7.12502
rthumb 6.5411578925634615 6.826642077578251
